<svg xmlns="http://www.w3.org/2000/svg" style="display:none">
  <defs>
    <symbol id="capsule-frame" viewBox="0 0 64 64">
      <path d="M11 22 C11 14, 20 11, 32 11 S53 14, 53 22 C53 27, 47 30, 38 31 C45 32, 53 35, 53 42 C53 50, 44 53, 32 53 S11 50, 11 42 C11 35, 19 32, 26 31 C17 30, 11 27, 11 22 Z"/>
    </symbol>

    <symbol id="ico-business" viewBox="0 0 64 64">
      <use href="#capsule-frame" fill="#1598d8"/>
      <g fill="#fff">
        <rect x="22" y="26" width="20" height="16" rx="2"/>
        <rect x="27" y="22" width="10" height="4" rx="1"/>
        <rect x="30" y="32" width="4" height="2" fill="#1598d8"/>
      </g>
    </symbol>

    <symbol id="ico-share" viewBox="0 0 64 64">
      <use href="#capsule-frame" fill="#1598d8"/>
      <g fill="none" stroke="#fff" stroke-width="2.2" stroke-linecap="round" stroke-linejoin="round">
        <rect x="22" y="20" width="20" height="24" rx="1.5"/>
        <path d="M26 26h12M26 30h12M26 34h8"/>
      </g>
      <text x="32" y="42" font-family="Manrope, sans-serif" font-size="9" font-weight="800" fill="#fff" text-anchor="middle">%</text>
    </symbol>

    <symbol id="ico-realestate" viewBox="0 0 64 64">
      <use href="#capsule-frame" fill="#1598d8"/>
      <g fill="#fff">
        <path d="M20 30 L32 22 L44 30 L44 44 L20 44 Z" fill="none" stroke="#fff" stroke-width="2.2" stroke-linejoin="round"/>
        <rect x="29" y="34" width="6" height="10"/>
      </g>
    </symbol>

    <symbol id="ico-transport" viewBox="0 0 64 64">
      <use href="#capsule-frame" fill="#1598d8"/>
      <g fill="none" stroke="#fff" stroke-width="2.2" stroke-linecap="round" stroke-linejoin="round">
        <path d="M18 38 L20 30 L24 26 L40 26 L44 30 L46 38 L46 42 L18 42 Z"/>
        <circle cx="24" cy="42" r="3" fill="#fff"/>
        <circle cx="40" cy="42" r="3" fill="#fff"/>
      </g>
    </symbol>

    <symbol id="ico-damage" viewBox="0 0 64 64">
      <use href="#capsule-frame" fill="#1598d8"/>
      <g fill="none" stroke="#fff" stroke-width="2.2" stroke-linecap="round" stroke-linejoin="round">
        <path d="M32 18 L46 42 L18 42 Z"/>
        <path d="M32 28 L32 35"/>
        <circle cx="32" cy="39" r="1.2" fill="#fff" stroke="none"/>
      </g>
    </symbol>

    <symbol id="ico-court" viewBox="0 0 64 64">
      <use href="#capsule-frame" fill="#1598d8"/>
      <g fill="none" stroke="#fff" stroke-width="2.2" stroke-linecap="round" stroke-linejoin="round">
        <path d="M32 20 L32 44"/>
        <path d="M22 24 L42 24"/>
        <path d="M22 24 L18 32 L26 32 Z"/>
        <path d="M42 24 L38 32 L46 32 Z"/>
        <path d="M26 44 L38 44"/>
      </g>
    </symbol>

    <symbol id="ico-finanalysis" viewBox="0 0 64 64">
      <use href="#capsule-frame" fill="#1598d8"/>
      <g fill="none" stroke="#fff" stroke-width="2.2" stroke-linecap="round" stroke-linejoin="round">
        <rect x="20" y="22" width="24" height="20" rx="1.5"/>
        <path d="M24 36 L28 32 L32 34 L36 28 L40 30"/>
        <circle cx="40" cy="30" r="1.2" fill="#fff"/>
      </g>
    </symbol>

    <symbol id="ico-doc" viewBox="0 0 64 64">
      <use href="#capsule-frame" fill="#1598d8"/>
      <g fill="none" stroke="#fff" stroke-width="2.2" stroke-linecap="round" stroke-linejoin="round">
        <path d="M24 22 L36 22 L40 26 L40 42 L24 42 Z"/>
        <path d="M36 22 L36 26 L40 26"/>
        <path d="M28 30 L36 30 M28 34 L36 34 M28 38 L34 38"/>
      </g>
    </symbol>

    <symbol id="ico-securities" viewBox="0 0 64 64">
      <use href="#capsule-frame" fill="#1598d8"/>
      <g fill="none" stroke="#fff" stroke-width="2.2" stroke-linecap="round" stroke-linejoin="round">
        <path d="M18 40 L26 32 L32 36 L40 24 L46 28"/>
        <path d="M40 24 L46 24 L46 30"/>
      </g>
    </symbol>

    <symbol id="ico-investment" viewBox="0 0 64 64">
      <use href="#capsule-frame" fill="#1598d8"/>
      <g fill="none" stroke="#fff" stroke-width="2.2">
        <circle cx="32" cy="32" r="11"/>
        <circle cx="32" cy="32" r="6"/>
        <circle cx="32" cy="32" r="1.6" fill="#fff"/>
      </g>
    </symbol>

    <symbol id="ico-ip" viewBox="0 0 64 64">
      <use href="#capsule-frame" fill="#1598d8"/>
      <g fill="none" stroke="#fff" stroke-width="2.2" stroke-linecap="round" stroke-linejoin="round">
        <path d="M26 38 C22 34, 22 27, 27 24 C32 21, 38 24, 39 28 C40 33, 36 34, 36 38"/>
        <path d="M28 40 L36 40"/>
        <path d="M29 43 L35 43"/>
      </g>
    </symbol>

    <symbol id="ico-equipment" viewBox="0 0 64 64">
      <use href="#capsule-frame" fill="#1598d8"/>
      <g fill="none" stroke="#fff" stroke-width="2.2" stroke-linecap="round" stroke-linejoin="round">
        <circle cx="32" cy="32" r="6"/>
        <path d="M32 22 L32 26 M32 38 L32 42 M22 32 L26 32 M38 32 L42 32 M25 25 L28 28 M36 36 L39 39 M25 39 L28 36 M36 28 L39 25"/>
      </g>
    </symbol>

    <symbol id="ico-bank" viewBox="0 0 64 64">
      <use href="#capsule-frame" fill="#1598d8"/>
      <g fill="none" stroke="#fff" stroke-width="2.2" stroke-linecap="round" stroke-linejoin="round">
        <path d="M18 28 L32 20 L46 28"/>
        <path d="M20 28 L20 42 M44 28 L44 42 M28 32 L28 40 M36 32 L36 40"/>
        <path d="M18 44 L46 44"/>
      </g>
    </symbol>

    <symbol id="arrow-right" viewBox="0 0 24 24">
      <path d="M5 12h14M13 6l6 6-6 6" fill="none" stroke="currentColor" stroke-width="1.8" stroke-linecap="round" stroke-linejoin="round"/>
    </symbol>

    <symbol id="check" viewBox="0 0 24 24">
      <path d="M5 12.5l4.5 4.5L19 7" fill="none" stroke="currentColor" stroke-width="2.2" stroke-linecap="round" stroke-linejoin="round"/>
    </symbol>

    <symbol id="phone" viewBox="0 0 24 24">
      <path d="M5 4.5C5 4 5.5 3.5 6 3.5h3.2c.5 0 .9.3 1 .8l1 4c.1.4 0 .8-.3 1.1L9 11c1.2 2.5 3.5 4.8 6 6l1.6-1.9c.3-.3.7-.4 1.1-.3l4 1c.5.1.8.5.8 1V20c0 .5-.5 1-1 1-9.4 0-17-7.6-17-17z" fill="none" stroke="currentColor" stroke-width="1.6" stroke-linejoin="round"/>
    </symbol>

    <symbol id="mail" viewBox="0 0 24 24">
      <rect x="3" y="5" width="18" height="14" rx="2" fill="none" stroke="currentColor" stroke-width="1.6"/>
      <path d="M3.5 6.5L12 13l8.5-6.5" fill="none" stroke="currentColor" stroke-width="1.6" stroke-linecap="round"/>
    </symbol>

    <symbol id="pin" viewBox="0 0 24 24">
      <path d="M12 22s7-7.5 7-13a7 7 0 10-14 0c0 5.5 7 13 7 13z" fill="none" stroke="currentColor" stroke-width="1.6"/>
      <circle cx="12" cy="9" r="2.5" fill="none" stroke="currentColor" stroke-width="1.6"/>
    </symbol>

    <symbol id="clock" viewBox="0 0 24 24">
      <circle cx="12" cy="12" r="9" fill="none" stroke="currentColor" stroke-width="1.6"/>
      <path d="M12 7v5l3.2 2" fill="none" stroke="currentColor" stroke-width="1.6" stroke-linecap="round"/>
    </symbol>

    <symbol id="shield" viewBox="0 0 24 24">
      <path d="M12 3l8 3v6c0 4.5-3.5 8-8 9-4.5-1-8-4.5-8-9V6l8-3z" fill="none" stroke="currentColor" stroke-width="1.6" stroke-linejoin="round"/>
      <path d="M9 12l2 2 4-4" fill="none" stroke="currentColor" stroke-width="1.6" stroke-linecap="round" stroke-linejoin="round"/>
    </symbol>

    <symbol id="doc" viewBox="0 0 24 24">
      <path d="M14 3H6a2 2 0 00-2 2v14a2 2 0 002 2h12a2 2 0 002-2V9l-6-6z" fill="none" stroke="currentColor" stroke-width="1.6" stroke-linejoin="round"/>
      <path d="M14 3v6h6M8 13h8M8 17h6" fill="none" stroke="currentColor" stroke-width="1.6" stroke-linecap="round"/>
    </symbol>

    <symbol id="user" viewBox="0 0 24 24">
      <circle cx="12" cy="8" r="4" fill="none" stroke="currentColor" stroke-width="1.6"/>
      <path d="M4 21c0-4.5 3.5-8 8-8s8 3.5 8 8" fill="none" stroke="currentColor" stroke-width="1.6" stroke-linecap="round"/>
    </symbol>

    <symbol id="plus" viewBox="0 0 24 24">
      <path d="M12 5v14M5 12h14" fill="none" stroke="currentColor" stroke-width="1.8" stroke-linecap="round"/>
    </symbol>
  </defs>
</svg>
